<svg xmlns="http://www.w3.org/2000/svg" xmlns:xlink="http://www.w3.org/1999/xlink" width="1920" height="960" viewBox="0 0 1920 960"><defs><clipPath id="a"><rect width="1920" height="960" rx="80" fill="#003c3c"/></clipPath><linearGradient id="b" x1="0.294" y1="-0.004" x2="0.284" y2="0.703" gradientUnits="objectBoundingBox"><stop offset="0" stop-color="#003c3c"/><stop offset="1" stop-color="#e6f0f0"/></linearGradient><linearGradient id="c" x1="0.542" y1="0.036" x2="0.649" y2="0.885" xlink:href="#b"/><linearGradient id="d" x1="0.264" y1="0.86" x2="0.09" y2="0.175" gradientUnits="objectBoundingBox"><stop offset="0" stop-color="#00dc82"/><stop offset="1" stop-color="#003c3c"/></linearGradient><clipPath id="f"><rect width="1920" height="960"/></clipPath></defs><g id="e" clip-path="url(#f)"><rect width="1920" height="960" fill="rgba(255,255,255,0)"/><g clip-path="url(#a)"><rect width="1920" height="960" fill="#003c3c"/><path d="M2380.364,888.729,2000.393,230.606A461.112,461.112,0,0,0,1601.048,0H841.094A461.165,461.165,0,0,0,441.761,230.508L61.779,888.729a460.927,460.927,0,0,0,0,461.017l379.983,658.221a461.189,461.189,0,0,0,399.333,230.508h759.954a461.251,461.251,0,0,0,399.345-230.508l379.971-658.221A460.981,460.981,0,0,0,2380.364,888.729Z" transform="matrix(-0.966, -0.259, 0.259, -0.966, 1108.78, 846.164)" opacity="0.149" fill="url(#b)"/><path d="M973.3,1379.489H525.86a303.112,303.112,0,0,1-261.758-151.1L40.374,840.843a302.929,302.929,0,0,1,0-302.2L264.1,151.1A303.125,303.125,0,0,1,525.86,0H973.3a303.163,303.163,0,0,1,261.763,151.092l223.723,387.554a302.962,302.962,0,0,1,0,302.2L1235.07,1228.332A303.1,303.1,0,0,1,973.3,1379.489ZM525.86,61.526a241.424,241.424,0,0,0-208.479,120.34L93.659,569.407a241.242,241.242,0,0,0,0,240.669l223.729,387.552A241.412,241.412,0,0,0,525.86,1317.963H973.3a241.4,241.4,0,0,0,208.483-120.392l223.719-387.489a241.273,241.273,0,0,0,0-240.67l-223.721-387.55A241.459,241.459,0,0,0,973.3,61.526Z" transform="matrix(-0.259, -0.966, 0.966, -0.259, 1480.47, 1991.858)" fill="url(#c)"/><path d="M634.215,916.716H333.179A213.261,213.261,0,0,1,149.014,810.409L-1.51,549.667a213.136,213.136,0,0,1,0-212.624L149.011,76.311A213.27,213.27,0,0,1,333.179-30H634.215A213.3,213.3,0,0,1,818.383,76.3L968.9,337.049a213.16,213.16,0,0,1,0,212.623l-150.514,260.7A213.252,213.252,0,0,1,634.215,916.716ZM333.179,30a153.1,153.1,0,0,0-132.208,76.314L50.453,367.047a152.979,152.979,0,0,0,0,152.616L200.974,780.407a153.091,153.091,0,0,0,132.2,76.309H634.215a153.086,153.086,0,0,0,132.209-76.347l150.517-260.7a153,153,0,0,0,0-152.617L766.425,106.308A153.122,153.122,0,0,0,634.215,30Z" transform="matrix(0.966, 0.259, -0.259, 0.966, 1657.353, -177.08)" fill="url(#d)"/></g><g transform="translate(146.624 157.844)"><g transform="translate(116.507 24.579)"><path d="M76.333,20.5H86.39L107.7,54.578V20.5h9.284V68.786H107L85.616,34.78V68.786H76.333Z" transform="translate(-76.333 -19.954)" fill="#e6f0f0"/><path d="M141,63.986h-8.651V58.592c-1.969,3.8-5.978,5.933-11.041,5.933-8.018,0-13.226-5.656-13.226-13.8V29.218h8.651v19.73c0,4.76,2.956,8.07,7.386,8.07,4.854,0,8.229-3.725,8.229-8.829V29.218H141Z" transform="translate(-58.85 -15.154)" fill="#e6f0f0"/><path d="M157.891,63.631l-8.3-11.589-8.3,11.589h-9.216l12.8-18.142L133.062,28.863h9.425l7.105,10,7.031-10h9.5L154.232,45.489l12.8,18.142Z" transform="translate(-45.638 -15.349)" fill="#e6f0f0"/><path d="M171.5,22.456V32.94h9.848v7.106H171.5V57.305a2.163,2.163,0,0,0,.653,1.546,2.251,2.251,0,0,0,1.575.642h7.62v8.2h-5.7c-7.738,0-12.8-4.416-12.8-12.135V40.053h-6.962V32.94h4.368a2.928,2.928,0,0,0,3.224-3.159V22.456Z" transform="translate(-32.524 -18.877)" fill="#e6f0f0"/><path d="M191.285,57.851V20.5h9.281V54.989c0,9.314-4.571,13.8-12.308,13.8h-10.8v-8.2H188.5a2.817,2.817,0,0,0,1.971-.8,2.708,2.708,0,0,0,.816-1.933" transform="translate(-20.65 -19.954)" fill="#e6f0f0"/><path d="M195.945,52.769h8.936c.495,5.393,4.153,8.828,10.061,8.828,5.275,0,8.936-2.066,8.936-6.344,0-10.349-26.465-3.176-26.465-21.662.006-7.932,6.97-13.443,16.975-13.443,10.411,0,17.443,5.862,17.873,14.9h-8.888c-.419-4.207-3.78-7.035-9-7.035-4.854,0-7.877,2.208-7.877,5.586,0,10.693,26.809,2.7,26.809,21.524,0,8.967-7.528,14.418-18.358,14.418-11.183,0-18.5-6.624-18.989-16.764" transform="translate(-10.468 -20.148)" fill="#e6f0f0"/></g><g transform="translate(3.376 12.102)"><path d="M44.275,15.45a6.771,6.771,0,0,0-11.685,0L4.29,64.11a6.7,6.7,0,0,0,5.843,10.046H32.225a6.469,6.469,0,0,1-1.362-8.173L52.3,29.243Z" transform="translate(-3.376 -12.102)" fill="#00dc82" fill-rule="evenodd" opacity="0.504"/><path d="M49.9,22.117a5.637,5.637,0,0,1,9.67,0L82.992,61.929a5.48,5.48,0,0,1-4.835,8.219H31.315a5.48,5.48,0,0,1-4.835-8.219Z" transform="translate(8.93 -8.095)" fill="#00dc82"/></g></g><g transform="translate(-3 -4)"><path d="M2.752-22.336A23.472,23.472,0,0,1,5.7-34.08a21.387,21.387,0,0,1,8.032-8.16,22.146,22.146,0,0,1,11.3-2.944,22.921,22.921,0,0,1,12.736,3.52A20.172,20.172,0,0,1,45.7-31.68H38.72a14.006,14.006,0,0,0-5.344-6.208,15.463,15.463,0,0,0-8.352-2.176,16.267,16.267,0,0,0-8.384,2.176,15.216,15.216,0,0,0-5.824,6.176A19.8,19.8,0,0,0,8.7-22.336a19.659,19.659,0,0,0,2.112,9.312A15.216,15.216,0,0,0,16.64-6.848a16.267,16.267,0,0,0,8.384,2.176,15.64,15.64,0,0,0,8.352-2.144,13.807,13.807,0,0,0,5.344-6.176H45.7A20.025,20.025,0,0,1,37.76-3.1,23.078,23.078,0,0,1,25.024.384a22.335,22.335,0,0,1-11.3-2.912,21.218,21.218,0,0,1-8.032-8.1A23.3,23.3,0,0,1,2.752-22.336Zm57.408-7.04a11.172,11.172,0,0,1,4.384-4.672,13.55,13.55,0,0,1,6.944-1.664V-29.7H69.952q-9.792,0-9.792,10.624V0H54.336V-35.072H60.16ZM76.032-17.664a19.7,19.7,0,0,1,2.176-9.44,15.788,15.788,0,0,1,5.984-6.3,16.413,16.413,0,0,1,8.48-2.24,15.563,15.563,0,0,1,8,1.984,13.219,13.219,0,0,1,5.056,4.992v-6.4h5.888V0h-5.888V-6.528a13.721,13.721,0,0,1-5.152,5.088A15.412,15.412,0,0,1,92.608.576a15.9,15.9,0,0,1-8.448-2.3,16.16,16.16,0,0,1-5.952-6.464A20.131,20.131,0,0,1,76.032-17.664Zm29.7.064a14.259,14.259,0,0,0-1.6-6.912,11.3,11.3,0,0,0-4.32-4.512,11.769,11.769,0,0,0-5.984-1.568,11.784,11.784,0,0,0-5.952,1.536,11.143,11.143,0,0,0-4.288,4.48,14.259,14.259,0,0,0-1.6,6.912,14.588,14.588,0,0,0,1.6,7.008,11.319,11.319,0,0,0,4.288,4.544,11.6,11.6,0,0,0,5.952,1.568,11.769,11.769,0,0,0,5.984-1.568,11.249,11.249,0,0,0,4.32-4.544A14.446,14.446,0,0,0,105.728-17.6Zm20.1,12.8H143.04V0H119.168V-4.8l17.024-25.536H119.3v-4.736h23.616v4.736ZM180.8-35.072,159.68,16.512h-6.016l6.912-16.9L146.432-35.072H152.9L163.9-6.656l10.88-28.416Zm37.184,4.8h-7.36V0H204.8V-30.272h-4.544v-4.8H204.8v-2.5q0-5.888,3.04-8.608t9.76-2.72v4.864q-3.84,0-5.408,1.5t-1.568,4.96v2.5h7.36Zm4.608,12.608a19.7,19.7,0,0,1,2.176-9.44,15.788,15.788,0,0,1,5.984-6.3,16.413,16.413,0,0,1,8.48-2.24,15.563,15.563,0,0,1,8,1.984,13.219,13.219,0,0,1,5.056,4.992v-6.4h5.888V0h-5.888V-6.528a13.721,13.721,0,0,1-5.152,5.088A15.412,15.412,0,0,1,239.168.576a15.9,15.9,0,0,1-8.448-2.3,16.16,16.16,0,0,1-5.952-6.464A20.131,20.131,0,0,1,222.592-17.664Zm29.7.064a14.259,14.259,0,0,0-1.6-6.912,11.3,11.3,0,0,0-4.32-4.512,11.769,11.769,0,0,0-5.984-1.568,11.784,11.784,0,0,0-5.952,1.536,11.143,11.143,0,0,0-4.288,4.48,14.259,14.259,0,0,0-1.6,6.912,14.588,14.588,0,0,0,1.6,7.008,11.319,11.319,0,0,0,4.288,4.544,11.6,11.6,0,0,0,5.952,1.568,11.769,11.769,0,0,0,5.984-1.568,11.249,11.249,0,0,0,4.32-4.544A14.446,14.446,0,0,0,252.288-17.6ZM280.448.576A18.141,18.141,0,0,1,273.216-.8a12.2,12.2,0,0,1-5.056-3.84,10.219,10.219,0,0,1-2.048-5.664h6.016a5.9,5.9,0,0,0,2.464,4.288,9.377,9.377,0,0,0,5.792,1.664,8.428,8.428,0,0,0,5.248-1.472,4.5,4.5,0,0,0,1.92-3.712A3.66,3.66,0,0,0,285.5-12.96a28.714,28.714,0,0,0-6.336-2.208,46.568,46.568,0,0,1-6.368-2.08,11.3,11.3,0,0,1-4.224-3.136,8.184,8.184,0,0,1-1.76-5.472,8.292,8.292,0,0,1,1.6-4.928,10.846,10.846,0,0,1,4.544-3.552,16.352,16.352,0,0,1,6.72-1.312,14.349,14.349,0,0,1,9.408,2.944,10.607,10.607,0,0,1,3.84,8.064H287.1a6.018,6.018,0,0,0-2.208-4.416,8.233,8.233,0,0,0-5.408-1.664,8.342,8.342,0,0,0-4.992,1.344,4.153,4.153,0,0,0-1.856,3.52,3.858,3.858,0,0,0,1.12,2.848,8.182,8.182,0,0,0,2.816,1.792,48.52,48.52,0,0,0,4.7,1.5,50.667,50.667,0,0,1,6.144,2.016,10.745,10.745,0,0,1,4.064,2.976,7.958,7.958,0,0,1,1.76,5.184,8.875,8.875,0,0,1-1.6,5.184,10.671,10.671,0,0,1-4.512,3.616A16.128,16.128,0,0,1,280.448.576Zm28.1-30.848V-9.6a4.918,4.918,0,0,0,1.088,3.616,5.363,5.363,0,0,0,3.776,1.056H317.7V0h-5.248q-4.864,0-7.3-2.24T302.72-9.6V-30.272h-4.544v-4.8h4.544V-43.9h5.824v8.832H317.7v4.8ZM354.24.576A18.141,18.141,0,0,1,347.008-.8a12.2,12.2,0,0,1-5.056-3.84A10.219,10.219,0,0,1,339.9-10.3h6.016a5.9,5.9,0,0,0,2.464,4.288,9.377,9.377,0,0,0,5.792,1.664,8.428,8.428,0,0,0,5.248-1.472,4.5,4.5,0,0,0,1.92-3.712A3.66,3.66,0,0,0,359.3-12.96a28.714,28.714,0,0,0-6.336-2.208,46.568,46.568,0,0,1-6.368-2.08,11.3,11.3,0,0,1-4.224-3.136,8.184,8.184,0,0,1-1.76-5.472,8.292,8.292,0,0,1,1.6-4.928,10.846,10.846,0,0,1,4.544-3.552,16.352,16.352,0,0,1,6.72-1.312A14.349,14.349,0,0,1,362.88-32.7a10.607,10.607,0,0,1,3.84,8.064H360.9a6.018,6.018,0,0,0-2.208-4.416,8.233,8.233,0,0,0-5.408-1.664,8.342,8.342,0,0,0-4.992,1.344,4.153,4.153,0,0,0-1.856,3.52,3.858,3.858,0,0,0,1.12,2.848,8.182,8.182,0,0,0,2.816,1.792,48.52,48.52,0,0,0,4.7,1.5,50.667,50.667,0,0,1,6.144,2.016,10.745,10.745,0,0,1,4.064,2.976,7.958,7.958,0,0,1,1.76,5.184,8.875,8.875,0,0,1-1.6,5.184,10.671,10.671,0,0,1-4.512,3.616A16.128,16.128,0,0,1,354.24.576Zm28.1-30.848V-9.6a4.918,4.918,0,0,0,1.088,3.616A5.363,5.363,0,0,0,387.2-4.928h4.288V0H386.24q-4.864,0-7.3-2.24T376.512-9.6V-30.272h-4.544v-4.8h4.544V-43.9h5.824v8.832h9.152v4.8Zm14.016,12.608a19.7,19.7,0,0,1,2.176-9.44,15.788,15.788,0,0,1,5.984-6.3,16.413,16.413,0,0,1,8.48-2.24,15.563,15.563,0,0,1,8,1.984,13.22,13.22,0,0,1,5.056,4.992v-6.4h5.888V0h-5.888V-6.528A13.721,13.721,0,0,1,420.9-1.44,15.412,15.412,0,0,1,412.928.576a15.9,15.9,0,0,1-8.448-2.3,16.159,16.159,0,0,1-5.952-6.464A20.131,20.131,0,0,1,396.352-17.664Zm29.7.064a14.259,14.259,0,0,0-1.6-6.912,11.3,11.3,0,0,0-4.32-4.512,11.769,11.769,0,0,0-5.984-1.568,11.784,11.784,0,0,0-5.952,1.536,11.143,11.143,0,0,0-4.288,4.48,14.259,14.259,0,0,0-1.6,6.912,14.588,14.588,0,0,0,1.6,7.008,11.319,11.319,0,0,0,4.288,4.544,11.6,11.6,0,0,0,5.952,1.568,11.769,11.769,0,0,0,5.984-1.568,11.249,11.249,0,0,0,4.32-4.544A14.446,14.446,0,0,0,426.048-17.6ZM448.9-30.272V-9.6a4.918,4.918,0,0,0,1.088,3.616,5.363,5.363,0,0,0,3.776,1.056h4.288V0H452.8q-4.864,0-7.3-2.24T443.072-9.6V-30.272h-4.544v-4.8h4.544V-43.9H448.9v8.832h9.152v4.8Zm19.2-10.5a3.831,3.831,0,0,1-2.816-1.152,3.831,3.831,0,0,1-1.152-2.816,3.83,3.83,0,0,1,1.152-2.816A3.831,3.831,0,0,1,468.1-48.7a3.652,3.652,0,0,1,2.72,1.152,3.887,3.887,0,0,1,1.12,2.816,3.887,3.887,0,0,1-1.12,2.816A3.652,3.652,0,0,1,468.1-40.768Zm2.816,5.7V0h-5.824V-35.072ZM478.656-17.6a19.841,19.841,0,0,1,2.176-9.5,15.656,15.656,0,0,1,6.048-6.3,17.377,17.377,0,0,1,8.864-2.24A17.3,17.3,0,0,1,506.4-32.512a14.8,14.8,0,0,1,5.536,8.7h-6.272a9.006,9.006,0,0,0-3.488-5.056,10.764,10.764,0,0,0-6.432-1.856A10.317,10.317,0,0,0,487.68-27.3q-3.072,3.424-3.072,9.7,0,6.336,3.072,9.792a10.273,10.273,0,0,0,8.064,3.456,10.892,10.892,0,0,0,6.4-1.792,9.086,9.086,0,0,0,3.52-5.12h6.272A15.426,15.426,0,0,1,506.3-2.656,16.87,16.87,0,0,1,495.744.576a17.377,17.377,0,0,1-8.864-2.24A15.606,15.606,0,0,1,480.832-8,20.174,20.174,0,0,1,478.656-17.6Zm55.936-.064a19.7,19.7,0,0,1,2.176-9.44,15.788,15.788,0,0,1,5.984-6.3,16.413,16.413,0,0,1,8.48-2.24,15.563,15.563,0,0,1,8,1.984,13.22,13.22,0,0,1,5.056,4.992v-6.4h5.888V0h-5.888V-6.528a13.721,13.721,0,0,1-5.152,5.088A15.412,15.412,0,0,1,551.168.576a15.9,15.9,0,0,1-8.448-2.3,16.16,16.16,0,0,1-5.952-6.464A20.131,20.131,0,0,1,534.592-17.664Zm29.7.064a14.259,14.259,0,0,0-1.6-6.912,11.3,11.3,0,0,0-4.32-4.512,11.769,11.769,0,0,0-5.984-1.568,11.784,11.784,0,0,0-5.952,1.536,11.143,11.143,0,0,0-4.288,4.48,14.258,14.258,0,0,0-1.6,6.912,14.587,14.587,0,0,0,1.6,7.008,11.319,11.319,0,0,0,4.288,4.544,11.6,11.6,0,0,0,5.952,1.568,11.769,11.769,0,0,0,5.984-1.568,11.25,11.25,0,0,0,4.32-4.544A14.447,14.447,0,0,0,564.288-17.6Zm21.568-11.008a13.888,13.888,0,0,1,5.152-5.024,15.412,15.412,0,0,1,7.968-2.016,16.413,16.413,0,0,1,8.48,2.24,15.788,15.788,0,0,1,5.984,6.3,19.7,19.7,0,0,1,2.176,9.44,20.131,20.131,0,0,1-2.176,9.472,16.085,16.085,0,0,1-5.984,6.464,16.063,16.063,0,0,1-8.48,2.3,15.285,15.285,0,0,1-7.9-2.016,14.416,14.416,0,0,1-5.216-5.024v23.1h-5.824V-35.072h5.824Zm23.808,10.944a14.259,14.259,0,0,0-1.6-6.912,11.078,11.078,0,0,0-4.32-4.48,11.96,11.96,0,0,0-5.984-1.536,11.648,11.648,0,0,0-5.92,1.568,11.464,11.464,0,0,0-4.352,4.544,14.079,14.079,0,0,0-1.632,6.88,14.216,14.216,0,0,0,1.632,6.944,11.464,11.464,0,0,0,4.352,4.544,11.648,11.648,0,0,0,5.92,1.568,11.769,11.769,0,0,0,5.984-1.568,11.25,11.25,0,0,0,4.32-4.544A14.588,14.588,0,0,0,609.664-17.664ZM629.12-28.608a13.888,13.888,0,0,1,5.152-5.024,15.412,15.412,0,0,1,7.968-2.016,16.413,16.413,0,0,1,8.48,2.24,15.788,15.788,0,0,1,5.984,6.3,19.7,19.7,0,0,1,2.176,9.44A20.131,20.131,0,0,1,656.7-8.192a16.085,16.085,0,0,1-5.984,6.464,16.063,16.063,0,0,1-8.48,2.3,15.285,15.285,0,0,1-7.9-2.016,14.416,14.416,0,0,1-5.216-5.024v23.1H623.3V-35.072h5.824Zm23.808,10.944a14.259,14.259,0,0,0-1.6-6.912,11.078,11.078,0,0,0-4.32-4.48,11.96,11.96,0,0,0-5.984-1.536,11.648,11.648,0,0,0-5.92,1.568,11.464,11.464,0,0,0-4.352,4.544,14.079,14.079,0,0,0-1.632,6.88,14.216,14.216,0,0,0,1.632,6.944A11.464,11.464,0,0,0,635.1-6.112a11.648,11.648,0,0,0,5.92,1.568,11.769,11.769,0,0,0,5.984-1.568,11.25,11.25,0,0,0,4.32-4.544A14.588,14.588,0,0,0,652.928-17.664Zm19.456-29.7V0H666.56V-47.36Zm12.928,6.592A3.831,3.831,0,0,1,682.5-41.92a3.83,3.83,0,0,1-1.152-2.816,3.83,3.83,0,0,1,1.152-2.816,3.831,3.831,0,0,1,2.816-1.152,3.652,3.652,0,0,1,2.72,1.152,3.887,3.887,0,0,1,1.12,2.816,3.887,3.887,0,0,1-1.12,2.816A3.652,3.652,0,0,1,685.312-40.768Zm2.816,5.7V0H682.3V-35.072ZM695.872-17.6a19.842,19.842,0,0,1,2.176-9.5,15.656,15.656,0,0,1,6.048-6.3,17.377,17.377,0,0,1,8.864-2.24,17.3,17.3,0,0,1,10.656,3.136,14.8,14.8,0,0,1,5.536,8.7H722.88a9.006,9.006,0,0,0-3.488-5.056,10.764,10.764,0,0,0-6.432-1.856A10.317,10.317,0,0,0,704.9-27.3q-3.072,3.424-3.072,9.7,0,6.336,3.072,9.792a10.273,10.273,0,0,0,8.064,3.456,10.892,10.892,0,0,0,6.4-1.792,9.086,9.086,0,0,0,3.52-5.12h6.272a15.426,15.426,0,0,1-5.632,8.608A16.87,16.87,0,0,1,712.96.576a17.377,17.377,0,0,1-8.864-2.24A15.606,15.606,0,0,1,698.048-8,20.174,20.174,0,0,1,695.872-17.6Zm38.848-.064A19.7,19.7,0,0,1,736.9-27.1a15.788,15.788,0,0,1,5.984-6.3,16.413,16.413,0,0,1,8.48-2.24,15.563,15.563,0,0,1,8,1.984,13.22,13.22,0,0,1,5.056,4.992v-6.4H770.3V0h-5.888V-6.528a13.721,13.721,0,0,1-5.152,5.088A15.412,15.412,0,0,1,751.3.576a15.9,15.9,0,0,1-8.448-2.3A16.16,16.16,0,0,1,736.9-8.192,20.131,20.131,0,0,1,734.72-17.664Zm29.7.064a14.259,14.259,0,0,0-1.6-6.912,11.3,11.3,0,0,0-4.32-4.512,11.769,11.769,0,0,0-5.984-1.568,11.784,11.784,0,0,0-5.952,1.536,11.143,11.143,0,0,0-4.288,4.48,14.258,14.258,0,0,0-1.6,6.912,14.587,14.587,0,0,0,1.6,7.008,11.319,11.319,0,0,0,4.288,4.544,11.6,11.6,0,0,0,5.952,1.568A11.769,11.769,0,0,0,758.5-6.112a11.25,11.25,0,0,0,4.32-4.544A14.447,14.447,0,0,0,764.416-17.6Zm22.848-12.672V-9.6a4.918,4.918,0,0,0,1.088,3.616,5.363,5.363,0,0,0,3.776,1.056h4.288V0h-5.248q-4.864,0-7.3-2.24T781.44-9.6V-30.272H776.9v-4.8h4.544V-43.9h5.824v8.832h9.152v4.8Zm19.2-10.5a3.831,3.831,0,0,1-2.816-1.152,3.83,3.83,0,0,1-1.152-2.816,3.83,3.83,0,0,1,1.152-2.816,3.831,3.831,0,0,1,2.816-1.152,3.652,3.652,0,0,1,2.72,1.152,3.887,3.887,0,0,1,1.12,2.816,3.887,3.887,0,0,1-1.12,2.816A3.652,3.652,0,0,1,806.464-40.768Zm2.816,5.7V0h-5.824V-35.072ZM834.5.576a17.956,17.956,0,0,1-8.928-2.24A15.947,15.947,0,0,1,819.3-8.032a19.524,19.524,0,0,1-2.272-9.568,18.962,18.962,0,0,1,2.336-9.5,16.1,16.1,0,0,1,6.368-6.336,18.474,18.474,0,0,1,9.024-2.208,18.475,18.475,0,0,1,9.024,2.208,16.153,16.153,0,0,1,6.368,6.3A18.916,18.916,0,0,1,852.48-17.6a18.689,18.689,0,0,1-2.4,9.568,16.634,16.634,0,0,1-6.5,6.368A18.626,18.626,0,0,1,834.5.576Zm0-5.12a12.3,12.3,0,0,0,5.888-1.472,11.2,11.2,0,0,0,4.448-4.416,14.144,14.144,0,0,0,1.7-7.168,14.364,14.364,0,0,0-1.664-7.168,10.9,10.9,0,0,0-4.352-4.384,12.142,12.142,0,0,0-5.824-1.44,12.086,12.086,0,0,0-5.856,1.44,10.557,10.557,0,0,0-4.256,4.384,14.83,14.83,0,0,0-1.6,7.168,15.23,15.23,0,0,0,1.568,7.232,10.422,10.422,0,0,0,4.192,4.384A11.775,11.775,0,0,0,834.5-4.544Zm42.752-31.168a14.214,14.214,0,0,1,10.368,3.872q3.968,3.872,3.968,11.168V0h-5.76V-19.84q0-5.248-2.624-8.032a9.376,9.376,0,0,0-7.168-2.784,9.6,9.6,0,0,0-7.328,2.88q-2.72,2.88-2.72,8.384V0H860.16V-35.072h5.824v4.992a11.562,11.562,0,0,1,4.7-4.16A14.591,14.591,0,0,1,877.248-35.712ZM913.536.576A18.141,18.141,0,0,1,906.3-.8a12.2,12.2,0,0,1-5.056-3.84A10.218,10.218,0,0,1,899.2-10.3h6.016a5.9,5.9,0,0,0,2.464,4.288,9.377,9.377,0,0,0,5.792,1.664,8.428,8.428,0,0,0,5.248-1.472,4.5,4.5,0,0,0,1.92-3.712,3.66,3.66,0,0,0-2.048-3.424,28.715,28.715,0,0,0-6.336-2.208,46.564,46.564,0,0,1-6.368-2.08,11.3,11.3,0,0,1-4.224-3.136,8.184,8.184,0,0,1-1.76-5.472,8.292,8.292,0,0,1,1.6-4.928,10.846,10.846,0,0,1,4.544-3.552,16.351,16.351,0,0,1,6.72-1.312,14.349,14.349,0,0,1,9.408,2.944,10.607,10.607,0,0,1,3.84,8.064h-5.824a6.018,6.018,0,0,0-2.208-4.416,8.233,8.233,0,0,0-5.408-1.664,8.342,8.342,0,0,0-4.992,1.344,4.153,4.153,0,0,0-1.856,3.52,3.858,3.858,0,0,0,1.12,2.848,8.181,8.181,0,0,0,2.816,1.792,48.524,48.524,0,0,0,4.7,1.5,50.667,50.667,0,0,1,6.144,2.016,10.744,10.744,0,0,1,4.064,2.976,7.958,7.958,0,0,1,1.76,5.184,8.876,8.876,0,0,1-1.6,5.184,10.671,10.671,0,0,1-4.512,3.616A16.128,16.128,0,0,1,913.536.576ZM936.384.384a3.831,3.831,0,0,1-2.816-1.152,3.831,3.831,0,0,1-1.152-2.816A3.831,3.831,0,0,1,933.568-6.4a3.831,3.831,0,0,1,2.816-1.152A3.652,3.652,0,0,1,939.1-6.4a3.887,3.887,0,0,1,1.12,2.816A3.887,3.887,0,0,1,939.1-.768,3.652,3.652,0,0,1,936.384.384Z" transform="translate(150.248 570)" fill="#e6f0f0" opacity="0.596"/><path d="M65.1-50.12a21.962,21.962,0,0,1,13.58,8.26A24.124,24.124,0,0,1,84-26.46a24.818,24.818,0,0,1-3.85,13.79A25.638,25.638,0,0,1,69.02-3.36,40.777,40.777,0,0,1,51.8,0H9.66V-97.72H49.98A41.814,41.814,0,0,1,67.13-94.5a24.42,24.42,0,0,1,10.92,8.96,23.46,23.46,0,0,1,3.71,13.02q0,8.54-4.55,14.28A24.343,24.343,0,0,1,65.1-50.12ZM29.26-57.4H47.18q7,0,10.78-3.15t3.78-9.03q0-5.88-3.78-9.1T47.18-81.9H29.26ZM49-15.96q7.14,0,11.13-3.36t3.99-9.52q0-6.3-4.2-9.87T48.58-42.28H29.26v26.32ZM130.62,1.26a40.853,40.853,0,0,1-20.16-4.97A35.788,35.788,0,0,1,96.39-17.78a42.16,42.16,0,0,1-5.11-21,41.265,41.265,0,0,1,5.25-21,36.483,36.483,0,0,1,14.35-14.07,41.648,41.648,0,0,1,20.3-4.97,41.648,41.648,0,0,1,20.3,4.97,36.483,36.483,0,0,1,14.35,14.07,41.265,41.265,0,0,1,5.25,21,40.423,40.423,0,0,1-5.39,21A37.325,37.325,0,0,1,151.13-3.71,42.338,42.338,0,0,1,130.62,1.26Zm0-17.08a20.389,20.389,0,0,0,10.01-2.59,18.823,18.823,0,0,0,7.49-7.77,26.184,26.184,0,0,0,2.8-12.6q0-11.06-5.81-17.01a19.1,19.1,0,0,0-14.21-5.95,18.649,18.649,0,0,0-14.07,5.95q-5.67,5.95-5.67,17.01t5.53,17.01A18.208,18.208,0,0,0,130.62-15.82ZM191.94-86.8a11.943,11.943,0,0,1-8.61-3.29,10.886,10.886,0,0,1-3.43-8.19,10.885,10.885,0,0,1,3.43-8.19,11.943,11.943,0,0,1,8.61-3.29,11.943,11.943,0,0,1,8.61,3.29,10.885,10.885,0,0,1,3.43,8.19,10.886,10.886,0,0,1-3.43,8.19A11.943,11.943,0,0,1,191.94-86.8Zm9.66,9.24V0H182V-77.56Zm35.42-26.04V0h-19.6V-103.6Zm87.92,63.14a46.257,46.257,0,0,1-.56,7.56h-56.7q.7,8.4,5.88,13.16a18.131,18.131,0,0,0,12.74,4.76q10.92,0,15.54-9.38h21.14A35.329,35.329,0,0,1,310.1-5.95q-9.52,7.21-23.38,7.21a40.459,40.459,0,0,1-20.09-4.97,34.981,34.981,0,0,1-13.86-14.07,43.111,43.111,0,0,1-4.97-21,43.914,43.914,0,0,1,4.9-21.14,34.19,34.19,0,0,1,13.72-14,41.1,41.1,0,0,1,20.3-4.9,40.776,40.776,0,0,1,19.81,4.76,33.5,33.5,0,0,1,13.58,13.51A40.883,40.883,0,0,1,324.94-40.46Zm-20.3-5.6a15.543,15.543,0,0,0-5.46-12.11,19.343,19.343,0,0,0-13.02-4.55,17.791,17.791,0,0,0-12.25,4.41q-4.97,4.41-6.09,12.25Zm50.68-19.46a27.556,27.556,0,0,1,9.87-9.66,27.45,27.45,0,0,1,13.93-3.5V-58.1h-5.18q-9.24,0-13.93,4.34t-4.69,15.12V0h-19.6V-77.56h19.6Zm53.06-.84a29.763,29.763,0,0,1,10.43-8.89A31.61,31.61,0,0,1,434-78.82a33.918,33.918,0,0,1,17.99,4.9,34.475,34.475,0,0,1,12.74,13.93,44.779,44.779,0,0,1,4.69,20.93,45.635,45.635,0,0,1-4.69,21.07A35.273,35.273,0,0,1,451.99-3.78,33.207,33.207,0,0,1,434,1.26a31.3,31.3,0,0,1-15.05-3.5,32.287,32.287,0,0,1-10.57-8.82V36.96h-19.6V-77.56h19.6Zm41.02,27.3a24.34,24.34,0,0,0-2.87-12.11,19.871,19.871,0,0,0-7.56-7.77,20.231,20.231,0,0,0-10.15-2.66,19.576,19.576,0,0,0-10.01,2.73,20.263,20.263,0,0,0-7.56,7.91,24.739,24.739,0,0,0-2.87,12.18,24.739,24.739,0,0,0,2.87,12.18,20.263,20.263,0,0,0,7.56,7.91,19.576,19.576,0,0,0,10.01,2.73,19.451,19.451,0,0,0,10.15-2.8,20.785,20.785,0,0,0,7.56-7.98A25.041,25.041,0,0,0,449.4-39.06Zm50.4-64.54V0H480.2V-103.6Zm10.78,64.54a44.889,44.889,0,0,1,4.69-20.86,34.375,34.375,0,0,1,12.74-14A33.918,33.918,0,0,1,546-78.82a31.6,31.6,0,0,1,15.19,3.5,30.822,30.822,0,0,1,10.43,8.82V-77.56h19.74V0H571.62V-11.34a29.154,29.154,0,0,1-10.43,9.03,31.912,31.912,0,0,1-15.33,3.57,32.961,32.961,0,0,1-17.85-5.04,35.272,35.272,0,0,1-12.74-14.21A45.635,45.635,0,0,1,510.58-39.06Zm61.04.28a25.141,25.141,0,0,0-2.8-12.25,19.741,19.741,0,0,0-7.56-7.84,20.206,20.206,0,0,0-10.22-2.73,19.851,19.851,0,0,0-10.08,2.66,20.03,20.03,0,0,0-7.49,7.77,24.34,24.34,0,0,0-2.87,12.11,25.142,25.142,0,0,0,2.87,12.25,20.664,20.664,0,0,0,7.56,8.05,19.2,19.2,0,0,0,10.01,2.8,20.206,20.206,0,0,0,10.22-2.73,19.741,19.741,0,0,0,7.56-7.84A25.141,25.141,0,0,0,571.62-38.78Zm58.24-22.68v37.52q0,3.92,1.89,5.67t6.37,1.75h9.1V0H634.9q-24.78,0-24.78-24.08V-61.46h-9.24v-16.1h9.24V-96.74h19.74v19.18h17.36v16.1Zm100.1,21a46.254,46.254,0,0,1-.56,7.56H672.7q.7,8.4,5.88,13.16a18.131,18.131,0,0,0,12.74,4.76q10.92,0,15.54-9.38H728A35.329,35.329,0,0,1,715.12-5.95q-9.52,7.21-23.38,7.21a40.459,40.459,0,0,1-20.09-4.97,34.981,34.981,0,0,1-13.86-14.07,43.111,43.111,0,0,1-4.97-21,43.914,43.914,0,0,1,4.9-21.14,34.19,34.19,0,0,1,13.72-14,41.1,41.1,0,0,1,20.3-4.9,40.776,40.776,0,0,1,19.81,4.76,33.5,33.5,0,0,1,13.58,13.51A40.883,40.883,0,0,1,729.96-40.46Zm-20.3-5.6a15.543,15.543,0,0,0-5.46-12.11,19.343,19.343,0,0,0-13.02-4.55,17.791,17.791,0,0,0-12.25,4.41q-4.97,4.41-6.09,12.25Z" transform="translate(143.34 455)" fill="#e6f0f0"/><g transform="translate(-1106.573 1.564)" opacity="0.801"><path d="M2076.807,403.535,2063.546,416.8l-5.207-5.207a4.027,4.027,0,0,0-5.7,5.7l8.054,8.054a4.026,4.026,0,0,0,5.7,0L2082.5,409.23a4.027,4.027,0,1,0-5.694-5.7Z" fill="#00dc82"/><path d="M2103.293,402.89a9.707,9.707,0,0,1-2.3-5.545,17.719,17.719,0,0,0-16.332-16.332,9.668,9.668,0,0,1-5.541-2.3,17.717,17.717,0,0,0-23.1,0,9.68,9.68,0,0,1-5.545,2.3,17.72,17.72,0,0,0-16.332,16.328,9.7,9.7,0,0,1-2.3,5.547,17.722,17.722,0,0,0,0,23.1,9.714,9.714,0,0,1,2.3,5.543,17.722,17.722,0,0,0,16.332,16.334,9.691,9.691,0,0,1,5.545,2.3,17.721,17.721,0,0,0,23.093,0,9.681,9.681,0,0,1,5.545-2.3A17.721,17.721,0,0,0,2101,431.532a9.713,9.713,0,0,1,2.3-5.547A17.719,17.719,0,0,0,2103.293,402.89Zm-6.127,17.872a17.7,17.7,0,0,0-4.2,10.129,9.7,9.7,0,0,1-8.939,8.941,17.687,17.687,0,0,0-10.131,4.2,9.7,9.7,0,0,1-12.647,0,17.7,17.7,0,0,0-10.131-4.2,9.7,9.7,0,0,1-8.938-8.945,17.7,17.7,0,0,0-4.2-10.125,9.712,9.712,0,0,1,0-12.649,17.7,17.7,0,0,0,4.2-10.131,9.7,9.7,0,0,1,8.938-8.939,17.7,17.7,0,0,0,10.135-4.2,9.7,9.7,0,0,1,12.643,0,17.691,17.691,0,0,0,10.131,4.2,9.7,9.7,0,0,1,8.939,8.943,17.715,17.715,0,0,0,4.2,10.129A9.709,9.709,0,0,1,2097.166,420.762Z" fill="#00dc82"/></g></g><g transform="translate(150 686)"><g transform="translate(508)"><rect width="155.747" height="95" rx="28" fill="#1fc17f" opacity="0.18"/><path d="M5.166-6.51Q9.2-10,11.529-12.243a25.827,25.827,0,0,0,3.885-4.683A9,9,0,0,0,16.968-21.8a5.963,5.963,0,0,0-1.2-3.948,4.634,4.634,0,0,0-3.759-1.428A4.813,4.813,0,0,0,8.169-25.6,6.554,6.554,0,0,0,6.72-21.378H2.1q.126-4.788,2.877-7.329a9.9,9.9,0,0,1,6.993-2.541,9.819,9.819,0,0,1,7.161,2.52,8.96,8.96,0,0,1,2.583,6.72,11.93,11.93,0,0,1-1.533,5.817,23.425,23.425,0,0,1-3.654,5q-2.121,2.205-5.4,5.1L9.24-4.41H22.554V-.42H2.142V-3.906Z" transform="translate(99.63 62)" fill="#00dc82" opacity="0.83"/><g transform="translate(-1921.018 -434.955)" opacity="0.85"><path d="M1968.956,493.215l12.436-21.315-4.659-8a3.928,3.928,0,0,0-6.778,0l-16.42,28.233a3.888,3.888,0,0,0,3.389,5.824h12.813a3.752,3.752,0,0,1-.781-4.742Z" fill="#00dc82" opacity="0.497"/><path d="M2006.34,493.19l-13.589-23.1a3.269,3.269,0,0,0-5.612,0l-13.589,23.1a3.178,3.178,0,0,0,2.807,4.765h27.177a3.177,3.177,0,0,0,2.8-4.765Z" fill="#00dc82"/></g></g><rect width="266" height="95" rx="28" fill="#1fc17f" opacity="0.18"/><path d="M22.008-29.19v3.906h-7.77V0H9.45V-25.284H1.638V-29.19Zm26.04,17.052a14.969,14.969,0,0,1-.168,2.352H30.2a6.422,6.422,0,0,0,2.058,4.452,6.5,6.5,0,0,0,4.536,1.68,5.6,5.6,0,0,0,5.46-3.234h5.166a10.424,10.424,0,0,1-3.8,5.229A11.152,11.152,0,0,1,36.792.378a11.819,11.819,0,0,1-5.943-1.491,10.608,10.608,0,0,1-4.116-4.2,12.812,12.812,0,0,1-1.491-6.279,13.113,13.113,0,0,1,1.449-6.279,10.19,10.19,0,0,1,4.074-4.179,12.125,12.125,0,0,1,6.027-1.47,11.786,11.786,0,0,1,5.838,1.428,10.09,10.09,0,0,1,3.99,4.011A12.08,12.08,0,0,1,48.048-12.138Zm-5-1.512a5.449,5.449,0,0,0-1.89-4.242,6.757,6.757,0,0,0-4.578-1.6,6.149,6.149,0,0,0-4.242,1.575,6.582,6.582,0,0,0-2.1,4.263Zm37.716-9.87a10.378,10.378,0,0,1,4.893,1.134,8.192,8.192,0,0,1,3.4,3.36A10.9,10.9,0,0,1,90.3-13.65V0H85.554V-12.936A6.717,6.717,0,0,0,84-17.7a5.531,5.531,0,0,0-4.242-1.659A5.6,5.6,0,0,0,75.5-17.7a6.66,6.66,0,0,0-1.575,4.767V0H69.174V-12.936A6.717,6.717,0,0,0,67.62-17.7a5.531,5.531,0,0,0-4.242-1.659A5.6,5.6,0,0,0,59.115-17.7a6.66,6.66,0,0,0-1.575,4.767V0H52.752V-23.142H57.54V-20.5a7.96,7.96,0,0,1,2.982-2.226,9.453,9.453,0,0,1,3.864-.8,10.286,10.286,0,0,1,4.956,1.176,8.038,8.038,0,0,1,3.36,3.4,7.761,7.761,0,0,1,3.276-3.339A9.688,9.688,0,0,1,80.766-23.52Zm20.412,3.78a9.73,9.73,0,0,1,3.318-2.688,10.133,10.133,0,0,1,4.746-1.092,10.577,10.577,0,0,1,5.523,1.491,10.474,10.474,0,0,1,3.927,4.179,12.961,12.961,0,0,1,1.428,6.174,13.337,13.337,0,0,1-1.428,6.237,10.672,10.672,0,0,1-3.927,4.284A10.357,10.357,0,0,1,109.242.378a10.041,10.041,0,0,1-4.7-1.071,10.542,10.542,0,0,1-3.36-2.667V11H96.39V-23.142h4.788Zm14.07,8.064a8.261,8.261,0,0,0-.987-4.137,6.764,6.764,0,0,0-2.6-2.646,7,7,0,0,0-3.465-.9,6.794,6.794,0,0,0-3.423.924,6.88,6.88,0,0,0-2.6,2.688,8.38,8.38,0,0,0-.987,4.158,8.5,8.5,0,0,0,.987,4.179,6.846,6.846,0,0,0,2.6,2.709,6.794,6.794,0,0,0,3.423.924,6.754,6.754,0,0,0,3.465-.945,6.963,6.963,0,0,0,2.6-2.751A8.621,8.621,0,0,0,115.248-11.676Zm14.406-19.4V0h-4.788V-31.08Zm4.7,19.4a12.807,12.807,0,0,1,1.449-6.174,10.621,10.621,0,0,1,3.948-4.179,10.577,10.577,0,0,1,5.523-1.491,10.1,10.1,0,0,1,4.767,1.071,9.674,9.674,0,0,1,3.255,2.667v-3.36h4.83V0H153.3V-3.444a9.509,9.509,0,0,1-3.318,2.73A10.226,10.226,0,0,1,145.194.378a10.176,10.176,0,0,1-5.46-1.533,10.872,10.872,0,0,1-3.927-4.284A13.179,13.179,0,0,1,134.358-11.676Zm18.942.084a8.38,8.38,0,0,0-.987-4.158,6.928,6.928,0,0,0-2.583-2.688,6.758,6.758,0,0,0-3.444-.924,6.879,6.879,0,0,0-3.444.9,6.81,6.81,0,0,0-2.583,2.646,8.261,8.261,0,0,0-.987,4.137,8.621,8.621,0,0,0,.987,4.2,6.964,6.964,0,0,0,2.6,2.751,6.679,6.679,0,0,0,3.423.945A6.758,6.758,0,0,0,149.73-4.7a6.894,6.894,0,0,0,2.583-2.709A8.5,8.5,0,0,0,153.3-11.592Zm16.716-7.644v12.81a2.459,2.459,0,0,0,.609,1.869,3.028,3.028,0,0,0,2.079.567h2.94V0h-3.78a7.286,7.286,0,0,1-4.956-1.512q-1.722-1.512-1.722-4.914v-12.81h-2.73v-3.906h2.73V-28.9h4.83v5.754h5.628v3.906Zm31.248,7.1a14.969,14.969,0,0,1-.168,2.352H183.414a6.422,6.422,0,0,0,2.058,4.452,6.5,6.5,0,0,0,4.536,1.68,5.6,5.6,0,0,0,5.46-3.234h5.166a10.424,10.424,0,0,1-3.8,5.229A11.152,11.152,0,0,1,190.008.378a11.819,11.819,0,0,1-5.943-1.491,10.608,10.608,0,0,1-4.116-4.2,12.812,12.812,0,0,1-1.491-6.279,13.113,13.113,0,0,1,1.449-6.279,10.19,10.19,0,0,1,4.074-4.179,12.125,12.125,0,0,1,6.027-1.47,11.786,11.786,0,0,1,5.838,1.428,10.09,10.09,0,0,1,3.99,4.011A12.08,12.08,0,0,1,201.264-12.138Zm-5-1.512a5.449,5.449,0,0,0-1.89-4.242,6.757,6.757,0,0,0-4.578-1.6,6.149,6.149,0,0,0-4.242,1.575,6.582,6.582,0,0,0-2.1,4.263Z" transform="translate(31.591 62)" fill="#00dc82" opacity="0.83"/><g transform="translate(294)"><rect width="186" height="95" rx="28" fill="#1fc17f" opacity="0.18"/><path d="M12.768.294A13.073,13.073,0,0,1,7.476-.735a8.685,8.685,0,0,1-3.7-2.919,7.413,7.413,0,0,1-1.344-4.41H7.56A4.626,4.626,0,0,0,9.051-4.956a5.285,5.285,0,0,0,3.717,1.218,5.724,5.724,0,0,0,3.864-1.2,3.891,3.891,0,0,0,1.386-3.087,3.371,3.371,0,0,0-.861-2.394,5.759,5.759,0,0,0-2.142-1.428,32.3,32.3,0,0,0-3.549-1.092,33.252,33.252,0,0,1-4.641-1.533A7.669,7.669,0,0,1,3.78-16.884a6.979,6.979,0,0,1-1.26-4.368,7.764,7.764,0,0,1,1.26-4.41,8.049,8.049,0,0,1,3.528-2.9,12.819,12.819,0,0,1,5.25-1.008,10.94,10.94,0,0,1,6.951,2.121,7.825,7.825,0,0,1,3,5.817H17.22a3.834,3.834,0,0,0-1.512-2.73,5.589,5.589,0,0,0-3.654-1.134,5.184,5.184,0,0,0-3.36,1.05,3.659,3.659,0,0,0-1.3,3.024,3.069,3.069,0,0,0,.819,2.2A5.783,5.783,0,0,0,10.29-17.85a32.275,32.275,0,0,0,3.444,1.092,35.954,35.954,0,0,1,4.725,1.6A7.865,7.865,0,0,1,21.567-12.7a7.062,7.062,0,0,1,1.281,4.431,7.967,7.967,0,0,1-1.2,4.2A8.635,8.635,0,0,1,18.165-.9,11.5,11.5,0,0,1,12.768.294ZM34.1-19.236v12.81a2.459,2.459,0,0,0,.609,1.869,3.028,3.028,0,0,0,2.079.567h2.94V0h-3.78A7.286,7.286,0,0,1,31-1.512q-1.722-1.512-1.722-4.914v-12.81h-2.73v-3.906h2.73V-28.9H34.1v5.754h5.628v3.906Zm8.442,7.56A12.807,12.807,0,0,1,44-17.85a10.621,10.621,0,0,1,3.948-4.179,10.577,10.577,0,0,1,5.523-1.491,10.1,10.1,0,0,1,4.767,1.071,9.674,9.674,0,0,1,3.255,2.667v-3.36h4.83V0h-4.83V-3.444A9.509,9.509,0,0,1,58.17-.714,10.226,10.226,0,0,1,53.382.378a10.176,10.176,0,0,1-5.46-1.533A10.872,10.872,0,0,1,44-5.439,13.179,13.179,0,0,1,42.546-11.676Zm18.942.084A8.38,8.38,0,0,0,60.5-15.75a6.928,6.928,0,0,0-2.583-2.688,6.758,6.758,0,0,0-3.444-.924,6.879,6.879,0,0,0-3.444.9,6.81,6.81,0,0,0-2.583,2.646,8.261,8.261,0,0,0-.987,4.137,8.621,8.621,0,0,0,.987,4.2,6.964,6.964,0,0,0,2.6,2.751,6.679,6.679,0,0,0,3.423.945A6.758,6.758,0,0,0,57.918-4.7,6.894,6.894,0,0,0,60.5-7.413,8.5,8.5,0,0,0,61.488-11.592ZM78.2-19.236v12.81a2.459,2.459,0,0,0,.609,1.869,3.028,3.028,0,0,0,2.079.567h2.94V0h-3.78A7.286,7.286,0,0,1,75.1-1.512q-1.722-1.512-1.722-4.914v-12.81h-2.73v-3.906h2.73V-28.9H78.2v5.754h5.628v3.906Zm12.474-6.972a2.966,2.966,0,0,1-2.184-.882,2.966,2.966,0,0,1-.882-2.184,2.966,2.966,0,0,1,.882-2.184,2.966,2.966,0,0,1,2.184-.882,2.916,2.916,0,0,1,2.142.882,2.966,2.966,0,0,1,.882,2.184,2.966,2.966,0,0,1-.882,2.184A2.916,2.916,0,0,1,90.678-26.208Zm2.352,3.066V0H88.242V-23.142Zm4.7,11.55a13.113,13.113,0,0,1,1.449-6.279,10.307,10.307,0,0,1,4.011-4.179,11.6,11.6,0,0,1,5.88-1.47,11.537,11.537,0,0,1,6.951,2,9.821,9.821,0,0,1,3.717,5.691h-5.166a5.463,5.463,0,0,0-2.016-2.688,5.954,5.954,0,0,0-3.486-.966,5.8,5.8,0,0,0-4.683,2.079,8.8,8.8,0,0,0-1.743,5.817,8.882,8.882,0,0,0,1.743,5.838,5.772,5.772,0,0,0,4.683,2.1,5.314,5.314,0,0,0,5.5-3.654h5.166a10.342,10.342,0,0,1-3.78,5.607A11.155,11.155,0,0,1,109.074.378a11.474,11.474,0,0,1-5.88-1.491,10.45,10.45,0,0,1-4.011-4.2A13.113,13.113,0,0,1,97.734-11.592Z" transform="translate(32.31 62)" fill="#00dc82" opacity="0.83"/></g></g></g></svg>